<svg width="128" height="42" viewBox="0 0 128 42" fill="none" xmlns="http://www.w3.org/2000/svg">
<path d="M22.2528 39.7863C21.0116 38.9272 20.1307 37.6181 19.6101 35.8181C19.0896 34.0181 18.8494 31.6454 18.8494 28.659V24.609C18.8494 21.6227 19.1297 19.1681 19.7303 17.3681C20.3309 15.5272 21.2518 14.2181 22.5331 13.3999C23.8144 12.5818 25.4561 12.1318 27.4981 12.1318C29.5002 12.1318 31.1418 12.5409 32.3431 13.3999C33.5443 14.259 34.4652 15.5681 35.0258 17.3681C35.5864 19.1681 35.8666 21.5818 35.8666 24.5681V28.6181C35.8666 31.6045 35.5864 33.9772 35.0258 35.7772C34.4652 37.5772 33.5843 38.8863 32.3431 39.7454C31.1018 40.5636 29.4201 41.0136 27.338 41.0136C25.1758 41.0545 23.4941 40.6045 22.2528 39.7863ZM29.1799 35.409C29.5402 34.509 29.7004 32.9954 29.7004 30.9499V22.2363C29.7004 20.2318 29.5402 18.759 29.1799 17.859C28.8195 16.9181 28.2189 16.4681 27.378 16.4681C26.5372 16.4681 25.9766 16.9181 25.6162 17.859C25.2559 18.7999 25.0957 20.2318 25.0957 22.2363V30.9499C25.0957 32.9954 25.2559 34.509 25.5762 35.409C25.8965 36.309 26.4971 36.759 27.378 36.759C28.2189 36.759 28.8195 36.309 29.1799 35.409ZM116.949 28.7409V30.1727L117.109 34.2227C117.229 35.1227 117.429 35.7772 117.75 36.1863C118.07 36.5954 118.591 36.7999 119.271 36.7999C120.192 36.7999 120.833 36.4318 121.153 35.6954C121.514 34.959 121.674 33.7318 121.714 32.0545L127.039 32.3818C127.079 32.6272 127.079 32.9545 127.079 33.3636C127.079 35.9409 126.399 37.8636 124.997 39.1318C123.596 40.3999 121.674 41.0545 119.151 41.0545C116.108 41.0545 113.986 40.0727 112.785 38.1499C111.584 36.2272 110.943 33.1999 110.943 29.1499V24.1999C111.079 17.2454 112.276 12.1522 119.311 12.1318C121.434 12.1318 123.035 12.5409 124.156 13.3181C125.277 14.0954 126.078 15.3227 126.559 16.9999C127.039 18.6772 127.239 20.9681 127.239 23.9136V28.6999H116.949V28.7409ZM117.75 16.959C117.429 17.3681 117.229 17.9818 117.109 18.8818C116.989 19.7818 116.949 22.9727 116.949 22.9727V24.9772H121.434V22.9727C121.434 24.9772 121.393 19.8227 121.273 18.8818C121.153 17.9409 120.953 17.2863 120.633 16.9181C120.312 16.5499 119.832 16.3454 119.191 16.3454C118.511 16.3863 118.03 16.5909 117.75 16.959ZM7.27762 28.209L0.270508 2.35449H6.39673C6.39673 2.35449 9.25963 15.3227 10.2406 21.4181H10.4008C11.5139 14.9463 14.3248 2.35449 14.3248 2.35449H20.451L13.3638 28.1681V40.5636H7.31766V28.209H7.27762Z" fill="white"/>
<path d="M55.7267 12.6641V40.605H50.9219L50.4013 37.1686H50.2812C48.9599 39.7459 46.9979 41.055 44.3952 41.055C39.6824 41.0427 39.1579 36.9641 39.1099 33.5277V12.6641H45.2761V33.1595C45.2761 34.3868 45.3962 35.2868 45.6765 35.8186C46.2451 36.9559 47.7186 36.6654 48.5194 36.105C48.9817 35.7857 49.3544 35.3485 49.6005 34.8368V12.6641H55.7267Z" fill="white"/>
<path d="M86.9582 12.6641V40.605H82.1533L81.6328 37.1686H81.5127C80.1913 39.7459 78.2293 41.055 75.6267 41.055C70.9139 41.0427 70.3894 36.9641 70.3413 33.5277V12.6641H76.5076V33.1595C76.5076 34.3868 76.6277 35.2868 76.908 35.8186C77.4766 36.9559 78.9501 36.6654 79.7509 36.105C80.2132 35.7857 80.5859 35.3485 80.832 34.8368V12.6641H86.9582Z" fill="white"/>
<path d="M72.4636 7.4274H66.3374V40.6047H60.3313V7.4274H54.2051V2.35467H72.4236V7.4274H72.4636ZM107.659 17.1229C107.299 15.3638 106.698 14.0956 105.858 13.2774C105.017 12.5001 103.896 12.091 102.414 12.091C101.287 12.0885 100.186 12.4304 99.2508 13.0729C98.2498 13.7274 97.5291 14.5865 96.9685 15.6501H96.9285V0.922852H91.0024V40.5638H96.0876L96.7282 37.9047H96.8484C97.338 38.8411 98.0727 39.6201 98.9705 40.1547C99.9315 40.6865 100.973 40.9729 102.134 40.9729C104.216 40.9729 105.737 39.991 106.738 38.0274C107.699 36.0638 108.22 32.9956 108.22 28.8638V24.4456C108.22 21.3365 108.02 18.8819 107.659 17.1229ZM102.014 28.5365C102.014 30.5819 101.934 32.1774 101.773 33.3229C101.613 34.4683 101.333 35.2865 100.933 35.7774C100.532 36.2683 100.012 36.5138 99.3709 36.5138C98.1297 36.4729 97.425 35.9001 96.9285 35.041V19.1683C97.1287 18.391 97.489 17.7774 98.0096 17.2865C98.8904 16.276 100.396 16.2638 101.093 17.2865C101.453 17.7774 101.653 18.6365 101.813 19.8229C101.934 21.0092 102.014 22.6865 102.014 24.8956V28.5365Z" fill="white"/>
</svg>
