<svg width="180" height="143" viewBox="0 0 180 143" fill="none" xmlns="http://www.w3.org/2000/svg">
<g filter="url(#filter0_d_519_100)">
<path d="M149.768 24.9144C149.048 22.2249 147.643 19.773 145.694 17.8028C143.744 15.8327 141.318 14.413 138.657 13.6852C128.915 11 89.7056 11 89.7056 11C89.7056 11 50.4961 11.0814 40.7541 13.7666C38.093 14.4944 35.6669 15.914 33.7176 17.8842C31.7682 19.8544 30.3635 22.3063 29.6434 24.9958C26.6967 42.4905 25.5534 69.1476 29.7239 85.9426C30.444 88.6321 31.8487 91.084 33.7981 93.0541C35.7475 95.0243 38.1735 96.444 40.8346 97.1717C50.5766 99.857 89.7861 99.857 89.7861 99.857C89.7861 99.857 128.996 99.857 138.738 97.1717C141.399 96.444 143.825 95.0243 145.774 93.0541C147.723 91.084 149.128 88.6321 149.848 85.9426C152.956 68.4234 153.914 41.7826 149.768 24.9144Z" fill="#DE131E"/>
<path d="M81 70L106 55.5L81 41V70Z" fill="white"/>
</g>
<defs>
<filter id="filter0_d_519_100" x="0" y="0" width="179.538" height="142.857" filterUnits="userSpaceOnUse" color-interpolation-filters="sRGB">
<feFlood flood-opacity="0" result="BackgroundImageFix"/>
<feColorMatrix in="SourceAlpha" type="matrix" values="0 0 0 0 0 0 0 0 0 0 0 0 0 0 0 0 0 0 127 0" result="hardAlpha"/>
<feOffset dy="16"/>
<feGaussianBlur stdDeviation="13.5"/>
<feComposite in2="hardAlpha" operator="out"/>
<feColorMatrix type="matrix" values="0 0 0 0 0 0 0 0 0 0 0 0 0 0 0 0 0 0 0.33 0"/>
<feBlend mode="normal" in2="BackgroundImageFix" result="effect1_dropShadow_519_100"/>
<feBlend mode="normal" in="SourceGraphic" in2="effect1_dropShadow_519_100" result="shape"/>
</filter>
</defs>
</svg>
